# xmcd
#
# Track frame offsets: 
#        150
#        16264
#        31311
#        44899
#        60362
#        78381
#        95818
#        113715
#        130366
#        145320
#        159807
#        176700
#
# Disc length: 2533 seconds
#
# Revision: 3
# Processed by: cddbd v1.5.2PL0 Copyright (c) Steve Scherf et al.
# Submitted via: ExactAudioCopyFreeDBPlugin 1.0
#
DISCID=9e09e30c
DTITLE=Max Mutzke - Black Forest
DYEAR=2008
DGENRE=Soul
TTITLE0=Marie
TTITLE1=St. Petersburg
TTITLE2=New Day
TTITLE3=Girl In Tokyo
TTITLE4=Smile
TTITLE5=Not Right
TTITLE6=Mrs. Thompson
TTITLE7=Backyard
TTITLE8=Easy On You
TTITLE9=Bring On The Sun
TTITLE10=Come Back
TTITLE11=Me and Lorraine
EXTD=
EXTT0=
EXTT1=
EXTT2=
EXTT3=
EXTT4=
EXTT5=
EXTT6=
EXTT7=
EXTT8=
EXTT9=
EXTT10=
EXTT11=
PLAYORDER=
